<svg width="56" height="57" viewBox="0 0 56 57" fill="none" xmlns="http://www.w3.org/2000/svg">
<g clip-path="url(#clip0_2840_23)">
<path d="M55.4303 8.72196C50.3655 5.16562 44.6608 2.62227 38.6303 1.23196C40.0561 4.98894 40.7879 8.97355 40.7903 12.992C40.785 14.4433 40.6881 15.8928 40.5003 17.332C39.3348 26.0487 34.7785 33.9539 27.8203 39.332C32.1436 42.6917 37.2318 44.9283 42.6303 45.842C50.9823 36.9428 55.6308 25.1965 55.6303 12.992C55.6303 11.562 55.5603 10.132 55.4303 8.72196Z" fill="#5627E1"/>
<path d="M27.82 14.842C32.1706 14.8367 36.4795 15.6896 40.5 17.352C40.6887 15.9062 40.7855 14.45 40.79 12.992C40.7876 8.97354 40.0558 4.98894 38.63 1.23196C32.0574 -0.285249 25.239 -0.402453 18.6181 0.887963C11.9971 2.17838 5.72184 4.84754 0.200012 8.72196C0.0800117 10.132 1.16988e-05 11.562 1.16988e-05 12.992C-0.00330273 17.7358 0.697672 22.4539 2.08001 26.992C5.20827 23.1931 9.13847 20.1336 13.5887 18.033C18.0389 15.9324 22.8989 14.8426 27.82 14.842Z" fill="#33119A"/>
<path d="M27.8201 39.392C20.8586 34.0168 16.3014 26.1101 15.1401 17.392C10.0631 19.4686 5.57714 22.7661 2.08008 26.992C4.21891 34.0506 7.9556 40.5213 13.0001 45.902C17.2095 50.4052 22.2394 54.0639 27.8201 56.682C33.3972 54.0628 38.4236 50.4041 42.6301 45.902C37.2315 44.9883 32.1434 42.7517 27.8201 39.392Z" fill="#3B12B8"/>
<g style="mix-blend-mode:multiply">
<path d="M15.1701 17.552V17.352C10.078 19.4356 5.58087 22.7475 2.08008 26.992C2.29008 27.682 2.53008 28.372 2.77008 29.052C5.68699 24.5406 9.61829 20.7736 14.2501 18.052L15.1701 17.552Z" fill="#898989"/>
</g>
<g style="mix-blend-mode:multiply">
<path d="M27.9996 39.292L27.8496 39.412C32.192 42.7613 37.292 44.9902 42.6996 45.902C43.1996 45.372 43.6996 44.822 44.1496 44.272C38.7798 44.0032 33.5473 42.4827 28.8696 39.832L27.9996 39.292Z" fill="#9FA0A0"/>
</g>
<g style="mix-blend-mode:multiply">
<path d="M40.3103 17.272L40.5003 17.352C41.2191 11.9032 40.5907 6.36141 38.6703 1.21195C38.0003 1.04195 37.2503 0.911952 36.5303 0.781952C38.983 5.56568 40.2843 10.8563 40.3303 16.232C40.3303 16.572 40.3203 16.922 40.3103 17.272Z" fill="#B5B5B6"/>
</g>
</g>
<defs>
<clipPath id="clip0_2840_23">
<rect width="55.63" height="56.682" fill="white"/>
</clipPath>
</defs>
</svg>
